<svg width="520" height="128" viewBox="0 0 520 128" fill="none" xmlns="http://www.w3.org/2000/svg" role="img" aria-labelledby="title desc">
  <title id="title">GameMind logo</title>
  <desc id="desc">GameMind wordmark with a minimal game world and AI memory icon.</desc>
  <rect width="128" height="128" rx="28" fill="#FFFDF8" stroke="#D8DEE6" stroke-width="2"/>
  <path d="M36 40.5L64 24L92 40.5V73.5L64 90L36 73.5V40.5Z" stroke="#111827" stroke-width="7" stroke-linejoin="round"/>
  <path d="M64 44V65.5L81.5 75.5" stroke="#0E7490" stroke-width="7" stroke-linecap="round" stroke-linejoin="round"/>
  <circle cx="64" cy="44" r="6" fill="#0E7490"/>
  <circle cx="81.5" cy="75.5" r="6" fill="#0E7490"/>
  <path d="M43 100H85" stroke="#111827" stroke-width="7" stroke-linecap="round"/>
  <path d="M165.28 76.5C157.36 76.5 151.04 74.18 146.32 69.54C141.6 64.82 139.24 58.58 139.24 50.82C139.24 43.06 141.64 36.86 146.44 32.22C151.24 27.5 157.64 25.14 165.64 25.14C170.36 25.14 174.52 25.98 178.12 27.66C181.8 29.34 184.72 31.78 186.88 34.98L180.52 41.22C177 36.58 172.16 34.26 166 34.26C160.96 34.26 156.96 35.78 154 38.82C151.04 41.78 149.56 45.78 149.56 50.82C149.56 55.94 151.04 60.02 154 63.06C156.96 66.02 160.92 67.5 165.88 67.5C170.04 67.5 173.44 66.58 176.08 64.74V55.74H164.56V47.34H185.68V69.66C183.2 71.74 180.16 73.42 176.56 74.7C173.04 75.9 169.28 76.5 165.28 76.5Z" fill="#111827"/>
  <path d="M210.427 76.5C204.907 76.5 200.507 74.7 197.227 71.1C193.947 67.5 192.307 62.66 192.307 56.58C192.307 50.5 193.947 45.7 197.227 42.18C200.507 38.58 204.907 36.78 210.427 36.78C214.827 36.78 218.267 38.18 220.747 40.98V37.62H230.107V75.66H220.747V72.18C218.267 75.06 214.827 76.5 210.427 76.5ZM211.747 68.1C214.467 68.1 216.667 67.06 218.347 64.98C220.027 62.9 220.867 60.1 220.867 56.58C220.867 53.06 220.027 50.3 218.347 48.3C216.667 46.22 214.467 45.18 211.747 45.18C208.867 45.18 206.587 46.22 204.907 48.3C203.227 50.3 202.387 53.06 202.387 56.58C202.387 60.1 203.227 62.9 204.907 64.98C206.587 67.06 208.867 68.1 211.747 68.1Z" fill="#111827"/>
  <path d="M238.465 75.66V37.62H247.825V41.34C250.145 38.3 253.305 36.78 257.305 36.78C261.945 36.78 265.305 38.58 267.385 42.18C270.025 38.58 273.625 36.78 278.185 36.78C282.345 36.78 285.585 38.02 287.905 40.5C290.225 42.98 291.385 46.5 291.385 51.06V75.66H281.665V52.62C281.665 47.82 279.745 45.42 275.905 45.42C273.745 45.42 272.025 46.26 270.745 47.94C269.545 49.54 268.945 51.74 268.945 54.54V75.66H259.225V52.62C259.225 47.82 257.305 45.42 253.465 45.42C251.305 45.42 249.585 46.26 248.305 47.94C247.105 49.54 246.505 51.74 246.505 54.54V75.66H238.465Z" fill="#111827"/>
  <path d="M318.288 76.5C312.048 76.5 307.088 74.74 303.408 71.22C299.808 67.62 298.008 62.78 298.008 56.7C298.008 50.78 299.728 45.98 303.168 42.3C306.688 38.62 311.368 36.78 317.208 36.78C322.728 36.78 327.128 38.46 330.408 41.82C333.688 45.18 335.328 49.74 335.328 55.5C335.328 56.94 335.248 58.22 335.088 59.34H307.848C308.328 62.38 309.528 64.7 311.448 66.3C313.368 67.82 315.928 68.58 319.128 68.58C323.288 68.58 326.928 67.3 330.048 64.74L334.008 71.58C330.008 74.86 324.768 76.5 318.288 76.5ZM307.968 52.5H325.968C325.648 50.02 324.728 48.06 323.208 46.62C321.768 45.18 319.768 44.46 317.208 44.46C314.648 44.46 312.528 45.18 310.848 46.62C309.248 48.06 308.288 50.02 307.968 52.5Z" fill="#111827"/>
  <path d="M342.084 75.66V26.1H354.204L368.964 58.98L383.724 26.1H395.844V75.66H385.764V42.78L372.804 71.46H365.124L352.164 42.78V75.66H342.084Z" fill="#111827"/>
  <path d="M405.685 75.66V37.62H415.405V75.66H405.685ZM405.205 31.74V22.86H415.885V31.74H405.205Z" fill="#111827"/>
  <path d="M424.059 75.66V37.62H433.419V41.58C435.899 38.38 439.419 36.78 443.979 36.78C448.379 36.78 451.819 38.06 454.299 40.62C456.859 43.18 458.139 46.78 458.139 51.42V75.66H448.419V53.1C448.419 48.06 446.179 45.54 441.699 45.54C439.299 45.54 437.379 46.38 435.939 48.06C434.499 49.74 433.779 52.02 433.779 54.9V75.66H424.059Z" fill="#111827"/>
  <path d="M482.422 76.5C476.902 76.5 472.502 74.7 469.222 71.1C465.942 67.5 464.302 62.66 464.302 56.58C464.302 50.5 465.942 45.7 469.222 42.18C472.502 38.58 476.902 36.78 482.422 36.78C486.582 36.78 489.902 38.02 492.382 40.5V24.06H502.102V75.66H492.742V72.18C490.262 75.06 486.822 76.5 482.422 76.5ZM483.742 68.1C486.462 68.1 488.662 67.06 490.342 64.98C492.022 62.9 492.862 60.1 492.862 56.58C492.862 53.06 492.022 50.3 490.342 48.3C488.662 46.22 486.462 45.18 483.742 45.18C480.862 45.18 478.582 46.22 476.902 48.3C475.222 50.3 474.382 53.06 474.382 56.58C474.382 60.1 475.222 62.9 476.902 64.98C478.582 67.06 480.862 68.1 483.742 68.1Z" fill="#111827"/>
  <path d="M142 101H501" stroke="#D8DEE6" stroke-width="2" stroke-linecap="round"/>
  <path d="M142 101H254" stroke="#0E7490" stroke-width="2" stroke-linecap="round"/>
</svg>
